<?xml version="1.0" encoding="UTF-8" standalone="no"?><!DOCTYPE svg PUBLIC "-//W3C//DTD SVG 1.1//EN" "http://www.w3.org/Graphics/SVG/1.1/DTD/svg11.dtd"><svg width="100%" height="100%" viewBox="0 0 20 14" version="1.1" xmlns="http://www.w3.org/2000/svg" xmlns:xlink="http://www.w3.org/1999/xlink" xml:space="preserve" xmlns:serif="http://www.serif.com/" style="fill-rule:evenodd;clip-rule:evenodd;stroke-linecap:round;stroke-linejoin:round;stroke-miterlimit:1.5;"><g><path d="M18.504,0.553c0.253,0.139 0.421,0.419 0.421,0.738l0,10.718c0,0.492 -0.399,0.891 -0.891,0.891l-16.718,0c-0.492,0 -0.891,-0.399 -0.891,-0.891l0,-10.718c0,-0.246 0.1,-0.469 0.269,-0.636l8.069,5.513c0.457,0.312 1.224,0.291 1.711,-0.046l8.03,-5.569Z" style="fill:none;stroke:#b1b1b3;stroke-width:0.85px;"/><path d="M18.381,0.47l0.123,0.083l-8.03,5.569c-0.487,0.337 -1.254,0.358 -1.711,0.046l-8.069,-5.513l0.275,-0.185l0.347,-0.07l16.718,0l0.347,0.07Z" style="fill:none;stroke:#b1b1b3;stroke-width:0.8px;"/></g></svg>