<?xml version="1.0" encoding="UTF-8" standalone="no"?><!DOCTYPE svg PUBLIC "-//W3C//DTD SVG 1.1//EN" "http://www.w3.org/Graphics/SVG/1.1/DTD/svg11.dtd"><svg width="100%" height="100%" viewBox="0 0 20 18" version="1.1" xmlns="http://www.w3.org/2000/svg" xmlns:xlink="http://www.w3.org/1999/xlink" xml:space="preserve" xmlns:serif="http://www.serif.com/" style="fill-rule:evenodd;clip-rule:evenodd;stroke-linecap:round;stroke-linejoin:round;stroke-miterlimit:1.5;"><g><path d="M19.425,1.68c0,-0.693 -0.562,-1.255 -1.255,-1.255l-16.49,0c-0.693,0 -1.255,0.562 -1.255,1.255l0,14.49c0,0.693 0.562,1.255 1.255,1.255l16.49,0c0.693,0 1.255,-0.562 1.255,-1.255l0,-14.49Z" style="fill:none;stroke:#b1b1b3;stroke-width:0.85px;"/><path d="M3.925,4.425c-0.184,0.169 12,0 12,0" style="fill:none;stroke:#b1b1b3;stroke-width:0.85px;"/><path d="M3.925,8.425c-0.184,0.169 12,0 12,0" style="fill:none;stroke:#b1b1b3;stroke-width:0.85px;"/><path d="M3.925,12.925c-0.184,0.169 12,0 12,0" style="fill:none;stroke:#b1b1b3;stroke-width:0.85px;"/></g></svg>