<?xml version="1.0" encoding="UTF-8" standalone="no"?><!DOCTYPE svg PUBLIC "-//W3C//DTD SVG 1.1//EN" "http://www.w3.org/Graphics/SVG/1.1/DTD/svg11.dtd"><svg width="100%" height="100%" viewBox="0 0 19 19" version="1.1" xmlns="http://www.w3.org/2000/svg" xmlns:xlink="http://www.w3.org/1999/xlink" xml:space="preserve" xmlns:serif="http://www.serif.com/" style="fill-rule:evenodd;clip-rule:evenodd;stroke-linecap:round;stroke-linejoin:round;stroke-miterlimit:1.5;"><g><path d="M17.692,10.758c0.777,-0.777 0.777,-2.039 0,-2.816l-6.934,-6.934c-0.777,-0.777 -2.039,-0.777 -2.816,0l-6.934,6.934c-0.777,0.777 -0.777,2.039 0,2.816l6.934,6.934c0.777,0.777 2.039,0.777 2.816,0l6.934,-6.934Z" style="fill:none;stroke:#b1b1b3;stroke-width:0.85px;"/><circle cx="9.35" cy="5.35" r="0.75" style="fill:#b1b1b3;"/><circle cx="9.35" cy="13.35" r="0.75" style="fill:#b1b1b3;"/><path d="M14.1,9.35c0,0.414 -0.336,0.75 -0.75,0.75c-0.414,0 -0.75,-0.336 -0.75,-0.75c0,-0.414 0.336,-0.75 0.75,-0.75c0.414,0 0.75,0.336 0.75,0.75Z" style="fill:#b1b1b3;"/><path d="M6.1,9.35c0,0.414 -0.336,0.75 -0.75,0.75c-0.414,0 -0.75,-0.336 -0.75,-0.75c0,-0.414 0.336,-0.75 0.75,-0.75c0.414,0 0.75,0.336 0.75,0.75Z" style="fill:#b1b1b3;"/></g></svg>